<svg width="40" height="40" viewBox="0 0 40 40" fill="none" xmlns="http://www.w3.org/2000/svg">
<rect width="40" height="40" rx="16" fill="#222C4F"/>
<g clip-path="url(#clip0_1_1656)">
<path d="M24.3083 30C24.1987 30.0006 24.0899 29.9796 23.9884 29.9381C23.8869 29.8967 23.7945 29.8356 23.7167 29.7583L16.9083 22.95C16.5203 22.5629 16.2125 22.1031 16.0024 21.5969C15.7923 21.0907 15.6842 20.5481 15.6842 20C15.6842 19.4519 15.7923 18.9093 16.0024 18.403C16.2125 17.8968 16.5203 17.437 16.9083 17.05L23.7167 10.2417C23.7944 10.164 23.8866 10.1023 23.9881 10.0603C24.0896 10.0182 24.1985 9.99658 24.3083 9.99658C24.4182 9.99658 24.527 10.0182 24.6285 10.0603C24.7301 10.1023 24.8223 10.164 24.9 10.2417C24.9777 10.3194 25.0393 10.4116 25.0814 10.5131C25.1234 10.6146 25.1451 10.7234 25.1451 10.8333C25.1451 10.9432 25.1234 11.052 25.0814 11.1535C25.0393 11.2551 24.9777 11.3473 24.9 11.425L18.0917 18.2333C17.6235 18.7021 17.3605 19.3375 17.3605 20C17.3605 20.6625 17.6235 21.2979 18.0917 21.7667L24.9 28.575C24.9781 28.6525 25.0401 28.7446 25.0824 28.8462C25.1247 28.9477 25.1465 29.0566 25.1465 29.1667C25.1465 29.2767 25.1247 29.3856 25.0824 29.4871C25.0401 29.5887 24.9781 29.6809 24.9 29.7583C24.8221 29.8356 24.7298 29.8967 24.6283 29.9381C24.5267 29.9796 24.418 30.0006 24.3083 30Z" fill="white"/>
</g>
<defs>
<clipPath id="clip0_1_1656">
<rect width="20" height="20" fill="white" transform="translate(10 10)"/>
</clipPath>
</defs>
</svg>
