<svg width="14" height="14" viewBox="0 0 14 14" fill="none" xmlns="http://www.w3.org/2000/svg">
<g clip-path="url(#clip0_1_1727)">
<path d="M0.774081 7.23333L2.85075 8.75L2.06208 11.1924C1.93463 11.5712 1.93302 11.9811 2.05748 12.3609C2.18194 12.7407 2.42582 13.0701 2.75275 13.3C3.07408 13.5373 3.46348 13.6644 3.86292 13.6624C4.26237 13.6604 4.65047 13.5294 4.96942 13.2889L7 11.7944L9.03117 13.2872C9.35191 13.5231 9.73921 13.6512 10.1374 13.6532C10.5356 13.6551 10.9241 13.5308 11.2471 13.298C11.5701 13.0652 11.811 12.7359 11.9352 12.3576C12.0593 11.9793 12.0603 11.5713 11.9379 11.1924L11.1492 8.75L13.2259 7.23333C13.5462 6.99913 13.7844 6.66969 13.9063 6.29206C14.0282 5.91443 14.0276 5.50794 13.9047 5.13064C13.7818 4.75334 13.5428 4.42454 13.2218 4.19119C12.9009 3.95785 12.5144 3.8319 12.1176 3.83133H9.56666L8.79258 1.41867C8.67085 1.03889 8.43165 0.70759 8.10948 0.472537C7.78731 0.237484 7.3988 0.110825 7 0.110825C6.60119 0.110825 6.21269 0.237484 5.89052 0.472537C5.56834 0.70759 5.32914 1.03889 5.20742 1.41867L4.43333 3.83133H1.88475C1.48793 3.8319 1.10144 3.95785 0.780486 4.19119C0.459529 4.42454 0.220522 4.75334 0.0976022 5.13064C-0.0253174 5.50794 -0.0258614 5.91443 0.0960478 6.29206C0.217957 6.66969 0.456084 6.99913 0.776415 7.23333H0.774081Z" fill="#F2C94C"/>
</g>
<defs>
<clipPath id="clip0_1_1727">
<rect width="14" height="14" fill="white"/>
</clipPath>
</defs>
</svg>
